<?xml version="1.0" encoding="UTF-8"?>
<svg version="1.1" xmlns="http://www.w3.org/2000/svg" width="1220" height="269">
<path d="M0 0 C1.52670166 -0.00148202 3.05340266 -0.0038421 4.58010179 -0.006993 C8.76313277 -0.01310007 12.94606573 -0.00680676 17.12908937 0.00156327 C21.68439093 0.00845662 26.23968296 0.00368534 30.79498649 0.00040829 C38.77442693 -0.00373273 46.7538375 -0.00046265 54.73327446 0.00768471 C66.5983602 0.01976579 78.46342714 0.02035529 90.32851791 0.01860073 C110.28847184 0.0159741 130.24841251 0.02265131 150.20836258 0.03463554 C169.97050416 0.04647059 189.73264021 0.05416764 209.49478531 0.05634117 C210.72365003 0.05647865 211.95251474 0.05661613 213.21861779 0.05675778 C219.45943012 0.05743444 225.70024245 0.05803721 231.94105479 0.05861153 C276.14183257 0.06281207 320.34260321 0.07628445 364.54337692 0.09521675 C375.2536837 0.09980014 385.96399049 0.1043509 396.67429733 0.10876656 C397.67070097 0.1091774 397.67070097 0.1091774 398.68723398 0.10959655 C429.57695532 0.12228858 460.46667729 0.12973714 491.35640056 0.13583615 C493.3621908 0.13623227 495.36798104 0.13663066 497.37377128 0.1370295 C510.66643156 0.13966911 523.95909186 0.14221818 537.25175217 0.14470722 C564.33030411 0.14977962 591.40885593 0.15542212 618.48740768 0.16140938 C620.35493948 0.16182125 620.35493948 0.16182125 622.26019919 0.16224144 C705.39707523 0.18064199 788.53394728 0.2123323 871.67081833 0.24609566 C870.18581833 0.74109566 870.18581833 0.74109566 868.67081833 1.24609566 C868.67081833 1.90609566 868.67081833 2.56609566 868.67081833 3.24609566 C867.68081833 3.24609566 866.69081833 3.24609566 865.67081833 3.24609566 C865.67081833 3.90609566 865.67081833 4.56609566 865.67081833 5.24609566 C864.68081833 5.24609566 863.69081833 5.24609566 862.67081833 5.24609566 C862.67081833 5.90609566 862.67081833 6.56609566 862.67081833 7.24609566 C862.01081833 7.24609566 861.35081833 7.24609566 860.67081833 7.24609566 C860.67081833 7.90609566 860.67081833 8.56609566 860.67081833 9.24609566 C858.99113083 10.75390816 858.99113083 10.75390816 856.79581833 12.37109566 C856.07652145 12.90992378 855.35722458 13.44875191 854.61613083 14.00390816 C852.67081833 15.24609566 852.67081833 15.24609566 850.67081833 15.24609566 C850.67081833 16.23609566 850.67081833 17.22609566 850.67081833 18.24609566 C850.01081833 18.24609566 849.35081833 18.24609566 848.67081833 18.24609566 C848.67081833 18.90609566 848.67081833 19.56609566 848.67081833 20.24609566 C848.01081833 20.24609566 847.35081833 20.24609566 846.67081833 20.24609566 C846.67081833 20.90609566 846.67081833 21.56609566 846.67081833 22.24609566 C846.01081833 22.24609566 845.35081833 22.24609566 844.67081833 22.24609566 C844.67081833 22.90609566 844.67081833 23.56609566 844.67081833 24.24609566 C844.01081833 24.24609566 843.35081833 24.24609566 842.67081833 24.24609566 C842.67081833 24.90609566 842.67081833 25.56609566 842.67081833 26.24609566 C842.01081833 26.24609566 841.35081833 26.24609566 840.67081833 26.24609566 C840.36144333 26.86484566 840.05206833 27.48359566 839.73331833 28.12109566 C839.04581833 29.49609566 838.35831833 30.87109566 837.67081833 32.24609566 C837.01081833 32.24609566 836.35081833 32.24609566 835.67081833 32.24609566 C835.67081833 32.90609566 835.67081833 33.56609566 835.67081833 34.24609566 C835.01081833 34.24609566 834.35081833 34.24609566 833.67081833 34.24609566 C833.52644333 35.02984566 833.38206833 35.81359566 833.23331833 36.62109566 C832.67081833 39.24609566 832.67081833 39.24609566 831.67081833 41.24609566 C831.01081833 41.24609566 830.35081833 41.24609566 829.67081833 41.24609566 C829.67081833 41.90609566 829.67081833 42.56609566 829.67081833 43.24609566 C829.01081833 43.24609566 828.35081833 43.24609566 827.67081833 43.24609566 C827.67081833 44.56609566 827.67081833 45.88609566 827.67081833 47.24609566 C827.01081833 47.24609566 826.35081833 47.24609566 825.67081833 47.24609566 C825.34081833 48.23609566 825.01081833 49.22609566 824.67081833 50.24609566 C824.34081833 51.23609566 824.01081833 52.22609566 823.67081833 53.24609566 C823.01081833 53.24609566 822.35081833 53.24609566 821.67081833 53.24609566 C821.54706833 53.98859566 821.42331833 54.73109566 821.29581833 55.49609566 C820.71595132 58.0475105 819.93373094 59.97285296 818.67081833 62.24609566 C818.01081833 62.24609566 817.35081833 62.24609566 816.67081833 62.24609566 C816.52644333 63.15359566 816.38206833 64.06109566 816.23331833 64.99609566 C815.8067236 67.46086522 815.32007612 69.83456673 814.67081833 72.24609566 C814.01081833 72.24609566 813.35081833 72.24609566 812.67081833 72.24609566 C812.76363083 73.23609566 812.76363083 73.23609566 812.85831833 74.24609566 C812.64575754 77.64706823 811.66528493 80.10979189 810.40519333 83.24218941 C809.44364691 85.86598363 809.01654207 88.48030571 808.67081833 91.24609566 C808.01081833 91.24609566 807.35081833 91.24609566 806.67081833 91.24609566 C806.67081833 94.87609566 806.67081833 98.50609566 806.67081833 102.24609566 C806.01081833 102.24609566 805.35081833 102.24609566 804.67081833 102.24609566 C804.67081833 107.85609566 804.67081833 113.46609566 804.67081833 119.24609566 C804.34081833 119.24609566 804.01081833 119.24609566 803.67081833 119.24609566 C803.67081833 124.85609566 803.67081833 130.46609566 803.67081833 136.24609566 C804.00081833 136.24609566 804.33081833 136.24609566 804.67081833 136.24609566 C804.67081833 142.18609566 804.67081833 148.12609566 804.67081833 154.24609566 C805.33081833 154.24609566 805.99081833 154.24609566 806.67081833 154.24609566 C806.67081833 157.87609566 806.67081833 161.50609566 806.67081833 165.24609566 C807.33081833 165.24609566 807.99081833 165.24609566 808.67081833 165.24609566 C808.87577927 166.17293159 809.0807402 167.09976753 809.29191208 168.05468941 C809.56132614 169.25222847 809.8307402 170.44976753 810.10831833 171.68359566 C810.37515427 172.87855659 810.6419902 174.07351753 810.91691208 175.30468941 C811.3714858 178.11656426 811.3714858 178.11656426 812.67081833 179.24609566 C812.71145665 180.91226681 812.71353933 182.57997661 812.67081833 184.24609566 C813.33081833 184.24609566 813.99081833 184.24609566 814.67081833 184.24609566 C814.92476364 184.90996284 815.17870895 185.57383003 815.44034958 186.25781441 C817.60976397 191.84332594 817.60976397 191.84332594 820.42081833 197.12109566 C821.67081833 199.24609566 821.67081833 199.24609566 821.67081833 203.24609566 C822.33081833 203.24609566 822.99081833 203.24609566 823.67081833 203.24609566 C823.67081833 204.23609566 823.67081833 205.22609566 823.67081833 206.24609566 C824.33081833 206.24609566 824.99081833 206.24609566 825.67081833 206.24609566 C825.67081833 207.23609566 825.67081833 208.22609566 825.67081833 209.24609566 C826.33081833 209.24609566 826.99081833 209.24609566 827.67081833 209.24609566 C827.67081833 210.56609566 827.67081833 211.88609566 827.67081833 213.24609566 C828.33081833 213.24609566 828.99081833 213.24609566 829.67081833 213.24609566 C829.67081833 213.90609566 829.67081833 214.56609566 829.67081833 215.24609566 C830.33081833 215.24609566 830.99081833 215.24609566 831.67081833 215.24609566 C833.13144683 217.89348482 833.67081833 219.140579 833.67081833 222.24609566 C834.33081833 222.24609566 834.99081833 222.24609566 835.67081833 222.24609566 C835.67081833 222.90609566 835.67081833 223.56609566 835.67081833 224.24609566 C836.33081833 224.24609566 836.99081833 224.24609566 837.67081833 224.24609566 C840.67081833 227.70763412 840.67081833 227.70763412 840.67081833 230.24609566 C841.33081833 230.24609566 841.99081833 230.24609566 842.67081833 230.24609566 C842.67081833 230.90609566 842.67081833 231.56609566 842.67081833 232.24609566 C843.33081833 232.24609566 843.99081833 232.24609566 844.67081833 232.24609566 C844.67081833 232.90609566 844.67081833 233.56609566 844.67081833 234.24609566 C845.33081833 234.24609566 845.99081833 234.24609566 846.67081833 234.24609566 C846.67081833 234.90609566 846.67081833 235.56609566 846.67081833 236.24609566 C847.33081833 236.24609566 847.99081833 236.24609566 848.67081833 236.24609566 C848.67081833 236.90609566 848.67081833 237.56609566 848.67081833 238.24609566 C849.33081833 238.24609566 849.99081833 238.24609566 850.67081833 238.24609566 C850.67081833 239.23609566 850.67081833 240.22609566 850.67081833 241.24609566 C851.47519333 241.61734566 851.47519333 241.61734566 852.29581833 241.99609566 C855.25321652 243.55262102 857.96805884 245.28045239 860.67081833 247.24609566 C860.67081833 247.90609566 860.67081833 248.56609566 860.67081833 249.24609566 C861.33081833 249.24609566 861.99081833 249.24609566 862.67081833 249.24609566 C862.67081833 249.90609566 862.67081833 250.56609566 862.67081833 251.24609566 C863.66081833 251.24609566 864.65081833 251.24609566 865.67081833 251.24609566 C865.67081833 251.90609566 865.67081833 252.56609566 865.67081833 253.24609566 C866.66081833 253.24609566 867.65081833 253.24609566 868.67081833 253.24609566 C868.67081833 253.90609566 868.67081833 254.56609566 868.67081833 255.24609566 C869.66081833 255.24609566 870.65081833 255.24609566 871.67081833 255.24609566 C871.67081833 255.90609566 871.67081833 256.56609566 871.67081833 257.24609566 C872.99081833 257.57609566 874.31081833 257.90609566 875.67081833 258.24609566 C873.88922523 260.02768876 871.27209079 259.37328706 868.86292714 259.37489682 C867.59006304 259.37816902 866.31719894 259.38144121 865.0057632 259.38481256 C863.57190101 259.38340217 862.13803891 259.38190014 860.7041769 259.38031673 C859.19123236 259.38226763 857.67828833 259.38465569 856.1653451 259.3874447 C851.96912005 259.39388087 847.77291406 259.39400346 843.57668501 259.3931673 C839.02587319 259.39333609 834.47506834 259.39923433 829.92425996 259.40440816 C820.88039509 259.41375958 811.83653512 259.41766048 802.79266601 259.41992712 C791.96647226 259.42288275 781.14028506 259.43157658 770.31409473 259.4403414 C744.13651259 259.4612168 717.9589293 259.4716618 691.78134077 259.48047101 C679.3988793 259.48467448 667.01641832 259.48989698 654.63395726 259.49515554 C612.25602571 259.51305144 569.87809403 259.52804649 527.50015926 259.53547573 C524.83792931 259.53595049 522.17569937 259.53642638 519.51346942 259.53690339 C518.85354101 259.53702151 518.19361261 259.53713963 517.51368637 259.53726133 C510.82766019 259.53845872 504.141634 259.53966748 497.45560782 259.54089386 C496.11503715 259.5411391 494.77446648 259.54138295 493.43389581 259.54162543 C450.41173265 259.54940934 407.38959682 259.57177663 364.3674456 259.60430186 C318.22871222 259.63917148 272.08999498 259.65977951 225.95124799 259.66311997 C220.9579689 259.66353751 215.96468983 259.66401708 210.97141075 259.66454315 C209.74190178 259.66466634 208.51239282 259.66478954 207.245626 259.66491646 C187.46555682 259.66724779 167.68551968 259.68290453 147.90546191 259.703385 C128.01370409 259.72365392 108.12198472 259.72911531 88.23021849 259.71961436 C76.41669567 259.71440295 64.60330096 259.72025987 52.7897966 259.74214904 C44.88974558 259.75567868 36.98978252 259.75456098 29.08973057 259.74174708 C24.59393064 259.73486473 20.09837525 259.73413155 15.60259738 259.75130717 C-5.15537083 259.82579343 -25.4322034 259.77880707 -45.07918167 252.05859566 C-46.23365799 251.61749458 -46.23365799 251.61749458 -47.41145706 251.16748238 C-78.8531692 238.70975044 -104.62818222 213.75914389 -118.33186722 182.88891792 C-132.15428563 149.9247905 -132.60284139 111.95434342 -119.30965042 78.78906441 C-106.28208267 47.99841786 -81.67160305 23.51657245 -51.26668167 9.87109566 C-46.15580278 7.82200632 -40.97140396 6.09044084 -35.70418167 4.49609566 C-35.04796829 4.29709663 -34.39175491 4.09809761 -33.71565628 3.89306831 C-22.53899559 0.69503081 -11.58093047 -0.04513763 0 0 Z " fill="#62C4B3" transform="translate(128.32918167114258,6.753904342651367)"/>
<path d="M0 0 C0.76280273 0.00337372 1.52560547 0.00674744 2.31152344 0.01022339 C14.47672378 0.08790808 26.05194193 0.8369122 37.75 4.4375 C38.53681152 4.67887695 39.32362305 4.92025391 40.13427734 5.16894531 C57.40862446 10.66548562 72.89570304 18.75025217 86.75 30.4375 C87.63171875 31.17871094 88.5134375 31.91992188 89.421875 32.68359375 C109.24303063 49.95015945 122.94637507 71.95788818 130.5 97.0625 C130.69875732 97.71839111 130.89751465 98.37428223 131.10229492 99.05004883 C134.45164056 110.74619924 135.1585144 122.34511759 135.125 134.4375 C135.12412384 135.21029297 135.12324768 135.98308594 135.12234497 136.77929688 C134.98444551 173.70008721 120.66232636 206.26493507 94.75 232.4375 C78.81348451 247.96165512 59.37823056 258.79270157 38.125 265.1875 C37.46910889 265.38625732 36.81321777 265.58501465 36.13745117 265.78979492 C24.44130076 269.13914056 12.84238241 269.8460144 0.75 269.8125 C-0.40918945 269.81118576 -0.40918945 269.81118576 -1.59179688 269.80984497 C-38.51258721 269.67194551 -71.07743507 255.34982636 -97.25 229.4375 C-112.77415512 213.50098451 -123.60520157 194.06573056 -130 172.8125 C-130.29813599 171.82866333 -130.29813599 171.82866333 -130.60229492 170.82495117 C-133.95164056 159.12880076 -134.6585144 147.52988241 -134.625 135.4375 C-134.62412384 134.66470703 -134.62324768 133.89191406 -134.62234497 133.09570312 C-134.48437035 96.15478951 -120.14996207 63.63602071 -94.25 37.4375 C-79.95239568 23.32145256 -62.66939821 13.00452516 -43.6875 6.5625 C-42.88634766 6.28841309 -42.08519531 6.01432617 -41.25976562 5.73193359 C-27.62821049 1.35734489 -14.23813381 -0.12308558 0 0 Z " fill="#040017" transform="translate(1085.25,-0.4375)"/>
<path d="M0 0 C7.67536977 -0.02255523 15.35072729 -0.04091753 23.02612209 -0.05181217 C26.58977422 -0.05703995 30.15340257 -0.06413569 33.71704102 -0.07543945 C37.81006097 -0.08834176 41.9030558 -0.09322906 45.99609375 -0.09765625 C47.92418129 -0.10539818 47.92418129 -0.10539818 49.89122009 -0.11329651 C51.07236893 -0.11337204 52.25351776 -0.11344757 53.47045898 -0.11352539 C55.03932106 -0.11685631 55.03932106 -0.11685631 56.63987732 -0.12025452 C59 0 59 0 60 1 C60.09376053 2.81055025 60.1174411 4.62477201 60.11352539 6.43774414 C60.11341209 8.17943626 60.11341209 8.17943626 60.11329651 9.95631409 C60.10813522 11.219832 60.10297394 12.48334991 60.09765625 13.78515625 C60.0962413 15.07111191 60.09482635 16.35706757 60.09336853 17.68199158 C60.08954418 21.10643443 60.07971462 24.53083509 60.06866455 27.95526123 C60.05844864 31.44738189 60.05387053 34.93950934 60.04882812 38.43164062 C60.03809226 45.28777953 60.02049614 52.1438834 60 59 C54.72 59 49.44 59 44 59 C43.67 49.1 43.34 39.2 43 29 C25.84 46.16 8.68 63.32 -9 81 C-16 75 -16 75 -21 69 C-3.84 51.84 13.32 34.68 31 17 C20.77 16.67 10.54 16.34 0 16 C0 10.72 0 5.44 0 0 Z " fill="#F1F3FC" transform="translate(1065,97)"/>
<path d="M0 0 C31 0 31 0 40 3 C45.37934933 8.49141911 46.34763833 11.77571875 46.2890625 19.234375 C45.75551645 24.33911291 42.69498758 27.67451118 39 31 C39.94875 31.7425 40.8975 32.485 41.875 33.25 C44.43255112 35.25156174 45.84626242 36.94150698 47 40 C47.65793656 45.49300522 47.70786166 50.41438989 45.4375 55.5 C40.65281459 60.40736965 35.4689776 62.88388464 28.60839844 63.11352539 C27.2887207 63.10828857 25.96904297 63.10305176 24.609375 63.09765625 C23.31999023 63.09515869 22.03060547 63.09266113 20.70214844 63.09008789 C18.25083496 63.07643188 18.25083496 63.07643188 15.75 63.0625 C7.95375 63.0315625 7.95375 63.0315625 0 63 C0 42.21 0 21.42 0 0 Z " fill="#040117" transform="translate(139,108)"/>
<path d="M0 0 C5.87780085 4.17633219 10.55911743 8.734011 12 16 C12.73220791 24.98523711 12.98974251 32.74845894 7 40 C1.63080843 46.17320756 -4.7730113 48.47584514 -12.8046875 49.28125 C-20.61426764 49.54084823 -26.55012373 48.13316651 -32.75 43.3125 C-38.29600717 38.05838795 -40.14062246 33.60304018 -40.52172852 25.87548828 C-40.66336879 18.05728436 -40.07489423 11.32221763 -35 5 C-25.70179634 -4.10727545 -11.64878643 -6.17082552 0 0 Z " fill="#050219" transform="translate(420,123)"/>
<path d="M0 0 C5.52033087 4.08353242 8.3673968 8.37355173 10 15 C10 18.96 10 22.92 10 27 C-2.54 27 -15.08 27 -28 27 C-24.8652502 34.57012395 -24.8652502 34.57012395 -19 38 C-14.52323228 38.3997114 -10.94555065 38.25460037 -7 36 C-6.34 34.68 -5.68 33.36 -5 32 C-0.38 32 4.24 32 9 32 C7.77930041 38.10349793 5.42829488 40.80812333 1 45 C-6.36633346 49.56712674 -15.30058347 50.29870594 -23.69140625 48.38671875 C-30.03811632 46.1871719 -34.4222404 42.71221845 -38 37 C-41.21469314 29.38795069 -41.46013097 18.36354421 -38.9375 10.4375 C-35.7840125 4.84260283 -31.43383691 -0.3033911 -25.20703125 -2.56640625 C-17.03722183 -4.17144845 -7.41343222 -4.15623834 0 0 Z " fill="#050319" transform="translate(772,123)"/>
<path d="M0 0 C3.96 0 7.92 0 12 0 C12.33 11.22 12.66 22.44 13 34 C14.93875 31.751875 16.8775 29.50375 18.875 27.1875 C19.48327637 26.48391357 20.09155273 25.78032715 20.71826172 25.05541992 C21.20053223 24.49443604 21.68280273 23.93345215 22.1796875 23.35546875 C22.67194824 22.78465576 23.16420898 22.21384277 23.67138672 21.62573242 C25.18616007 19.8258536 25.18616007 19.8258536 27 17 C29.95064148 16.7791436 32.68368231 16.71939011 35.625 16.8125 C36.82769531 16.83280273 36.82769531 16.83280273 38.0546875 16.85351562 C40.03674378 16.88890949 42.01845551 16.94271766 44 17 C42.56909959 20.23307612 40.80944011 22.48641626 38.375 25.0390625 C37.31539062 26.15667969 37.31539062 26.15667969 36.234375 27.296875 C35.49703125 28.06515625 34.7596875 28.8334375 34 29.625 C32.89398437 30.78902344 32.89398437 30.78902344 31.765625 31.9765625 C29.19921592 34.67410197 26.63284691 37.36715309 24 40 C24.08440184 43.5388484 24.92862506 44.91738783 27.2578125 47.61328125 C28.20398438 48.50402344 29.15015625 49.39476562 30.125 50.3125 C31.12679701 51.27547778 32.12679286 52.24033276 33.125 53.20703125 C33.85976563 53.91400146 33.85976563 53.91400146 34.609375 54.63525391 C42.44007654 62.32022961 42.44007654 62.32022961 44 67 C30.87418593 68.77865486 30.87418593 68.77865486 26.22705078 65.90283203 C22.58957629 62.71879157 19.80737292 58.91167171 17 55 C15.68 53.35 14.36 51.7 13 50 C12.67 55.61 12.34 61.22 12 67 C8.04 67 4.08 67 0 67 C0 44.89 0 22.78 0 0 Z " fill="#040117" transform="translate(688,104)"/>
<path d="M0 0 C4.62 0 9.24 0 14 0 C17.22201583 7.5487228 20.18043062 15.12247075 22.88671875 22.87109375 C23.86162637 25.61109727 24.89841414 28.30891126 26 31 C28.2251787 28.25558693 29.59932672 25.82582755 30.71875 22.48046875 C31.01136719 21.62259766 31.30398438 20.76472656 31.60546875 19.88085938 C31.90066406 18.99205078 32.19585937 18.10324219 32.5 17.1875 C34.46484555 11.34873407 36.48262849 5.62571133 39 0 C43.29 0 47.58 0 52 0 C51.28314828 3.58425859 50.64684696 6.17254815 49.28515625 9.44116211 C48.93388672 10.29072983 48.58261719 11.14029755 48.22070312 12.01560974 C47.83849609 12.92698196 47.45628906 13.83835419 47.0625 14.77734375 C46.46405273 16.21999352 46.46405273 16.21999352 45.85351562 17.69178772 C44.5732889 20.7754909 43.28684603 23.85655401 42 26.9375 C40.74822895 29.94597652 39.49775384 32.95498956 38.24731445 35.96401978 C37.41699224 37.96163216 36.58610192 39.95900851 35.75463867 41.95614624 C31.45677593 52.28517612 27.22365257 62.64044636 23 73 C18.71 73 14.42 73 10 73 C11.12064343 66.27613941 11.12064343 66.27613941 12.6640625 63.16015625 C13.13972656 62.1537207 13.13972656 62.1537207 13.625 61.12695312 C14.29162969 59.75072737 14.96613025 58.37828646 15.6484375 57.00976562 C15.96296875 56.33751953 16.2775 55.66527344 16.6015625 54.97265625 C17.03976318 54.07945679 17.03976318 54.07945679 17.48681641 53.16821289 C19.04263478 46.59484324 15.67062815 40.14254896 13.18359375 34.19921875 C12.80767593 33.28163284 12.43175812 32.36404694 12.04444885 31.4186554 C10.84961596 28.50512461 9.64422991 25.59612108 8.4375 22.6875 C7.22878333 19.76041313 6.02236106 16.83242379 4.81983948 13.90278625 C4.07261859 12.0837577 3.32153535 10.26631008 2.56626892 8.4506073 C2.22914383 7.63248062 1.89201874 6.81435394 1.54467773 5.97143555 C1.24569077 5.25086472 0.9467038 4.53029388 0.63865662 3.78788757 C0 2 0 2 0 0 Z " fill="#050218" transform="translate(248,121)"/>
<path d="M0 0 C4.29 0 8.58 0 13 0 C13.01458252 0.97348389 13.02916504 1.94696777 13.04418945 2.94995117 C13.10233296 6.57515476 13.17956377 10.1997476 13.26245117 13.82446289 C13.29562532 15.39076801 13.32368058 16.95719051 13.34643555 18.52368164 C13.38012116 20.78061763 13.43244049 23.03648526 13.48828125 25.29296875 C13.49467117 25.98899704 13.5010611 26.68502533 13.50764465 27.40214539 C13.63794486 31.74878925 14.37777896 34.51706537 17 38 C20.21522137 40.32826375 23.10830425 40.39711181 27 40 C29.69202926 38.77635034 31.43889678 37.82236153 33.11474609 35.36621094 C34.34712908 32.0721525 34.35684293 28.86400725 34.4140625 25.390625 C34.43342865 24.66381531 34.4527948 23.93700562 34.4727478 23.18817139 C34.53234271 20.87556552 34.57884758 18.56290933 34.625 16.25 C34.66319836 14.67836418 34.70225117 13.10674887 34.7421875 11.53515625 C34.83802743 7.69027158 34.92213195 3.84528893 35 0 C39.29 0 43.58 0 48 0 C48 16.5 48 33 48 50 C44.04 50 40.08 50 36 50 C36 49.01 36 48.02 36 47 C35.113125 47.474375 34.22625 47.94875 33.3125 48.4375 C26.35775619 51.71803953 19.46568678 51.43362826 12 50 C6.38483224 47.53674245 3.13795618 43.57157152 0.78735352 38.01416016 C-0.99879642 31.17639049 -0.39938955 23.9510576 -0.25 16.9375 C-0.22990347 15.29233946 -0.21165827 13.64715521 -0.1953125 12.00195312 C-0.15156759 8.00070931 -0.0827166 4.00062015 0 0 Z " fill="#05041A" transform="translate(439,121)"/>
<path d="M0 0 C4.29 0 8.58 0 13 0 C13.01458252 0.97348389 13.02916504 1.94696777 13.04418945 2.94995117 C13.10233296 6.57515476 13.17956377 10.1997476 13.26245117 13.82446289 C13.29562532 15.39076801 13.32368058 16.95719051 13.34643555 18.52368164 C13.38012116 20.78061763 13.43244049 23.03648526 13.48828125 25.29296875 C13.49467117 25.98899704 13.5010611 26.68502533 13.50764465 27.40214539 C13.63794486 31.74878925 14.37777896 34.51706537 17 38 C20.21522137 40.32826375 23.10830425 40.39711181 27 40 C29.69202926 38.77635034 31.43889678 37.82236153 33.11474609 35.36621094 C34.34712908 32.0721525 34.35684293 28.86400725 34.4140625 25.390625 C34.43342865 24.66381531 34.4527948 23.93700562 34.4727478 23.18817139 C34.53234271 20.87556552 34.57884758 18.56290933 34.625 16.25 C34.66319836 14.67836418 34.70225117 13.10674887 34.7421875 11.53515625 C34.83802743 7.69027158 34.92213195 3.84528893 35 0 C39.29 0 43.58 0 48 0 C48 16.5 48 33 48 50 C44.04 50 40.08 50 36 50 C36 49.01 36 48.02 36 47 C35.113125 47.474375 34.22625 47.94875 33.3125 48.4375 C26.35775619 51.71803953 19.46568678 51.43362826 12 50 C6.38483224 47.53674245 3.13795618 43.57157152 0.78735352 38.01416016 C-0.99879642 31.17639049 -0.39938955 23.9510576 -0.25 16.9375 C-0.22990347 15.29233946 -0.21165827 13.64715521 -0.1953125 12.00195312 C-0.15156759 8.00070931 -0.0827166 4.00062015 0 0 Z " fill="#05041A" transform="translate(195,121)"/>
<path d="M0 0 C3.26336808 1.97592118 5.52648517 3.9491139 7.4375 7.3125 C8.0263136 10.01500345 8.24936482 12.53750615 8.4375 15.3125 C6.50190687 15.44754138 4.563628 15.54451129 2.625 15.625 C1.54605469 15.68300781 0.46710937 15.74101562 -0.64453125 15.80078125 C-3.5625 15.3125 -3.5625 15.3125 -5.32421875 12.85546875 C-5.73285156 12.01628906 -6.14148438 11.17710937 -6.5625 10.3125 C-9.81553044 8.68598478 -12.95475602 9.19796844 -16.5625 9.3125 C-17.85883621 10.37895115 -17.85883621 10.37895115 -17.625 12.875 C-17.604375 13.679375 -17.58375 14.48375 -17.5625 15.3125 C-12.56289657 17.6860491 -7.61298785 19.64279762 -2.3125 21.25 C2.40851689 22.81966294 5.68566668 23.94752301 8.4375 28.3125 C9.69579072 33.09721056 9.88271031 36.97686906 8.3125 41.6875 C4.87518548 46.49974033 1.20998732 49.02972504 -4.5625 50.3125 C-13.00614884 51.06100386 -20.26678337 50.11405432 -27.4375 45.4375 C-30.45949933 42.41550067 -32.51452022 40.03219649 -32.63671875 35.65234375 C-32.61222656 34.88019531 -32.58773437 34.10804688 -32.5625 33.3125 C-30.46008397 33.17753749 -28.3552039 33.08052693 -26.25 33 C-25.07824219 32.94199219 -23.90648437 32.88398438 -22.69921875 32.82421875 C-21.66410156 32.98535156 -20.62898437 33.14648438 -19.5625 33.3125 C-17.76953125 35.76953125 -17.76953125 35.76953125 -16.5625 38.3125 C-13.50556678 39.84096661 -10.93265453 39.54492445 -7.5625 39.3125 C-5.08114773 38.22463816 -5.08114773 38.22463816 -3.5625 36.3125 C-3.5625 34.9925 -3.5625 33.6725 -3.5625 32.3125 C-5.41875 31.69375 -5.41875 31.69375 -7.3125 31.0625 C-8.12847656 30.78664062 -8.94445312 30.51078125 -9.78515625 30.2265625 C-11.72150667 29.58928261 -13.66792542 28.98214298 -15.62109375 28.3984375 C-21.67890037 26.53798753 -26.10970114 24.88564478 -30.5625 20.3125 C-32.28825116 16.86099768 -31.92354194 13.0935938 -31.5625 9.3125 C-29.80600892 5.15238955 -27.28382278 2.82222932 -23.5625 0.3125 C-16.18332287 -2.59129467 -7.36169394 -3.4115167 0 0 Z " fill="#050218" transform="translate(852.5625,121.6875)"/>
<path d="M0 0 C4.29 0 8.58 0 13 0 C17.33333333 8.66666667 21.66666667 17.33333333 26 26 C28.75741299 23.24258701 29.88305673 19.91382397 31.375 16.375 C33.75550412 10.82193649 36.20756063 5.36148359 39 0 C43.62 0 48.24 0 53 0 C51.40156182 4.79531455 49.62429678 8.66757718 47.12109375 12.9609375 C37.64256943 29.74962508 31.16074981 43.14747471 33 63 C28.71 63 24.42 63 20 63 C20.09023438 61.58074219 20.18046875 60.16148437 20.2734375 58.69921875 C20.81664422 39.9633798 14.32016871 27.68184959 5 12 C4.00712025 10.30573665 3.02176318 8.60702305 2.046875 6.90234375 C1.64823242 6.21519287 1.24958984 5.52804199 0.83886719 4.82006836 C0 3 0 3 0 0 Z " fill="#050319" transform="translate(329,108)"/>
<path d="M0 0 C4.4165435 3.08615027 7.47369258 6.2052906 8.5625 11.55859375 C8.6759375 12.47382813 8.789375 13.3890625 8.90625 14.33203125 C6.82471065 14.46739147 4.74063794 14.5641859 2.65625 14.64453125 C1.49609375 14.70253906 0.3359375 14.76054687 -0.859375 14.8203125 C-4.09375 14.33203125 -4.09375 14.33203125 -6.390625 11.875 C-6.95265625 11.03582031 -7.5146875 10.19664062 -8.09375 9.33203125 C-11.57392308 7.59194471 -15.29681815 7.74738257 -19.09375 8.33203125 C-22.81617692 11.1040513 -24.99139473 13.82239606 -26.09375 18.33203125 C-26.67473468 24.51536823 -26.35879005 28.89029784 -23.09375 34.33203125 C-23.09375 34.99203125 -23.09375 35.65203125 -23.09375 36.33203125 C-18.8691682 38.44432215 -14.74250187 39.28995588 -10.09375 38.33203125 C-7.13324126 36.04003722 -7.13324126 36.04003722 -5.09375 33.33203125 C-4.09375 32.33203125 -4.09375 32.33203125 -1.15234375 32.234375 C0.04261719 32.24597656 1.23757813 32.25757813 2.46875 32.26953125 C4.26505859 32.28306641 4.26505859 32.28306641 6.09765625 32.296875 C7.02449219 32.30847656 7.95132813 32.32007813 8.90625 32.33203125 C8.15259383 38.34434448 6.52602301 41.45405106 1.90625 45.33203125 C-4.82851465 49.3469871 -11.39666582 50.05073489 -19.09375 49.33203125 C-20.16109375 49.24308594 -20.16109375 49.24308594 -21.25 49.15234375 C-27.60045957 48.11913406 -31.94506188 44.0372507 -36.09375 39.33203125 C-41.0548749 32.32993724 -40.02780608 20.86063344 -38.66015625 12.765625 C-36.79228341 6.83715904 -32.50288171 2.4875809 -27.3515625 -0.76953125 C-19.14414509 -4.53860276 -7.93861954 -4.19147263 0 0 Z " fill="#050218" transform="translate(670.09375,122.66796875)"/>
<path d="M0 0 C14.85 0 29.7 0 45 0 C45 2.97 45 5.94 45 9 C39.72 9 34.44 9 29 9 C29 26.82 29 44.64 29 63 C24.71 63 20.42 63 16 63 C16 45.18 16 27.36 16 9 C10.72 9 5.44 9 0 9 C0 6.03 0 3.06 0 0 Z " fill="#07071C" transform="translate(558,108)"/>
<path d="M0 0 C4.29 0 8.58 0 13 0 C13 4.29 13 8.58 13 13 C16.96 13 20.92 13 25 13 C25 15.97 25 18.94 25 22 C21.04 22 17.08 22 13 22 C13.09347301 26.09381399 13.19955156 30.18708609 13.31738281 34.28027344 C13.35569327 35.67308572 13.39054259 37.06599765 13.421875 38.45898438 C13.46747907 40.45986308 13.52651623 42.46042146 13.5859375 44.4609375 C13.63306885 46.26763916 13.63306885 46.26763916 13.68115234 48.11083984 C13.70915226 51.1260018 13.70915226 51.1260018 16 53 C18.20250992 53.46006346 18.20250992 53.46006346 20.625 53.625 C22.06875 53.74875 23.5125 53.8725 25 54 C25 56.97 25 59.94 25 63 C22.62429457 63.0816082 20.25144159 63.14077222 17.875 63.1875 C17.20984375 63.21263672 16.5446875 63.23777344 15.859375 63.26367188 C11.10609277 63.33357308 7.94472315 62.66520247 4 60 C0.25060048 55.38761639 -0.48493697 52.30856059 -0.390625 46.4140625 C-0.38496521 45.71227875 -0.37930542 45.010495 -0.37347412 44.28744507 C-0.35124483 42.06590913 -0.30108056 39.84604077 -0.25 37.625 C-0.22991731 36.11070053 -0.21166964 34.59637554 -0.1953125 33.08203125 C-0.15142633 29.38748732 -0.08249577 25.69390667 0 22 C-1.65 22 -3.3 22 -5 22 C-5 19.03 -5 16.06 -5 13 C-3.35 13 -1.7 13 0 13 C0 8.71 0 4.42 0 0 Z " fill="#06041A" transform="translate(790,108)"/>
<path d="M0 0 C0 3.96 0 7.92 0 12 C-2.24609375 12.22786458 -4.4921875 12.45572917 -6.73828125 12.68359375 C-9.16087179 12.95265693 -9.16087179 12.95265693 -12 14 C-13.98560965 18.447799 -14.29432966 22.53796308 -14.4140625 27.3671875 C-14.43342865 28.04677521 -14.4527948 28.72636292 -14.4727478 29.42654419 C-14.53205099 31.57590579 -14.57872891 33.72532241 -14.625 35.875 C-14.66322532 37.3411679 -14.70227964 38.80731443 -14.7421875 40.2734375 C-14.83771044 43.84876164 -14.92192126 47.42424748 -15 51 C-18.96 51 -22.92 51 -27 51 C-27 34.5 -27 18 -27 1 C-23.04 1 -19.08 1 -15 1 C-15 1.99 -15 2.98 -15 4 C-14.2575 3.525625 -13.515 3.05125 -12.75 2.5625 C-8.04835834 -0.10888731 -5.65341192 0 0 0 Z " fill="#040017" transform="translate(525,120)"/>
<path d="M0 0 C4.78893551 2.4414181 7.73191149 5.11488628 10 10 C10.75381535 15.5997712 10.77303575 20.33499991 8.375 25.5 C4.68803483 29.38101597 1.89366448 31.7294765 -3.5 32.5 C-9.19132317 31.68695383 -11.93916345 29.39583756 -15.375 24.875 C-17.66917351 20.38304682 -17.77558892 15.92261539 -17 11 C-15.63142917 6.95579631 -13.42126475 4.36509612 -10.1875 1.5625 C-6.36484149 -0.31135221 -4.20985151 -0.60140736 0 0 Z " fill="#60C0B0" transform="translate(409,130)"/>
<path d="M0 0 C3.96 0 7.92 0 12 0 C12 16.5 12 33 12 50 C8.04 50 4.08 50 0 50 C0 33.5 0 17 0 0 Z " fill="#040017" transform="translate(611,121)"/>
<path d="M0 0 C3.526875 -0.12375 3.526875 -0.12375 7.125 -0.25 C7.85348145 -0.28641602 8.58196289 -0.32283203 9.33251953 -0.36035156 C14.40007317 -0.44556673 17.13527027 0.81188467 21 4 C23.34549674 7.51824511 23.57991403 8.85775694 23 13 C20.827365 15.57285724 19.02006162 17.48996919 16 19 C13.28024285 19.07187519 10.59325368 19.0927862 7.875 19.0625 C5.27625 19.041875 2.6775 19.02125 0 19 C0 12.73 0 6.46 0 0 Z " fill="#5EBBAB" transform="translate(151,143)"/>
<path d="M0 0 C15.26785714 -0.66964286 15.26785714 -0.66964286 18.9375 2.0625 C21 5 21 5 21.625 8.5625 C20.91797896 12.45111572 20.09308401 13.63470046 17 16 C13.93618406 17.53190797 10.73034134 17.10243613 7.375 17.0625 C4.94125 17.041875 2.5075 17.02125 0 17 C0 11.39 0 5.78 0 0 Z " fill="#5FBDAD" transform="translate(151,117)"/>
<path d="M0 0 C4.09816754 0.05875509 6.83226684 0.98380166 10.3125 3.25 C13.19342425 6.22695506 13.3125 6.91821748 13.3125 11.25 C5.3925 11.25 -2.5275 11.25 -10.6875 11.25 C-9.60579788 5.8414894 -8.61803096 4.78747787 -4.6875 1.25 C-3.6875 0.25 -3.6875 0.25 0 0 Z " fill="#60BFAF" transform="translate(755.6875,129.75)"/>
<path d="M0 0 C2.9375 1.625 2.9375 1.625 5 4 C5.67927401 7.62279473 5.46942769 9.25673949 3.5 12.375 C-0.24099229 14.80664499 -2.57426418 14.49174842 -7 14 C-9 13 -9 13 -10 11 C-10.52265149 7.4161041 -10.66071832 4.24370507 -8.9375 1 C-5.81022887 -0.61407542 -3.45560099 -0.41705529 0 0 Z " fill="#06051B" transform="translate(620,101)"/>
</svg>
